<svg width="90" height="65" viewBox="0 0 90 65" fill="none" xmlns="http://www.w3.org/2000/svg">
<path fill-rule="evenodd" clip-rule="evenodd" d="M85.5962 21.2405L78.9808 22.7971L70.6792 5.54523C69.3821 2.56183 67.1769 1.13499 64.7124 0.486424C51.4817 -0.162141 38.5104 -0.162141 25.2796 0.486424C22.8151 1.13499 20.6099 2.56183 19.3128 5.54523L11.0112 22.7971L4.39581 21.2405C2.45012 20.8514 0.504425 22.0188 0.115288 23.9645C-0.403564 25.7805 0.893562 27.7262 2.70955 28.245L7.50893 29.2827L6.47122 31.2284C6.34151 40.9569 6.2118 50.5557 6.2118 60.2841C6.2118 62.3596 7.89807 64.0458 9.97348 64.0458H22.8151C24.8905 64.0458 26.5768 62.3596 26.5768 60.2841V55.0956H63.4153V60.2841C63.4153 62.3596 65.1015 64.0458 67.1769 64.0458H80.0185C82.0939 64.0458 83.7802 62.3596 83.7802 60.2841C83.7802 50.5557 83.6505 40.9569 83.5208 31.2284L82.4831 29.2827L87.2825 28.245C89.2282 27.7262 90.3956 25.7805 89.8767 23.9645C89.4876 22.0188 87.5419 20.8514 85.5962 21.2405ZM63.4153 5.28581C67.0472 5.54523 72.2358 20.4622 73.922 23.9645C54.5948 22.1485 35.3972 22.1485 16.07 23.9645C17.7563 20.4622 22.9448 5.54523 26.5768 5.28581C38.8995 3.98868 51.0925 3.98868 63.4153 5.28581ZM13.9946 33.8227C19.9614 34.4712 27.355 35.8981 30.2087 38.3626V39.9192C30.2087 41.346 29.0413 42.5135 27.6145 42.5135H14.1243C12.5677 42.5135 11.2706 41.2163 11.2706 39.5301V36.6764C11.2706 35.1198 12.438 33.693 13.9946 33.8227ZM75.9974 33.8227C70.0306 34.4712 62.637 35.8981 59.7833 38.3626V39.9192C59.7833 41.346 60.9507 42.5135 62.3776 42.5135H75.8677C77.4243 42.5135 78.8511 41.2163 78.8511 39.5301V36.6764C78.8511 35.1198 77.554 33.693 75.9974 33.8227Z" fill="#20B7F9"/>
</svg>
