<svg width="33" height="37" viewBox="0 0 33 37" fill="none" xmlns="http://www.w3.org/2000/svg">
<path fill-rule="evenodd" clip-rule="evenodd" d="M2.77394 4.88691C3.06852 7.59184 3.4531 10.3376 4.0259 13.018C4.24683 14.0395 4.49232 15.0529 4.77053 16.0499C4.9751 16.8017 5.20422 17.5453 5.4497 18.2808C5.80156 19.3432 6.19434 20.381 6.63621 21.3862C8.6819 26.0932 11.7504 30.2119 16.4064 33.113C26.1112 27.0739 28.8852 15.7066 30.0308 4.88691C25.4075 3.30972 22.1344 2.77854 16.4064 2.59875C10.6785 2.77854 7.39721 3.30972 2.77394 4.88691Z" fill="#FFC229"/>
<path fill-rule="evenodd" clip-rule="evenodd" d="M16.4064 2.59875C22.1344 2.78671 25.4075 3.30972 30.0308 4.88691L29.0734 5.50798C29.0734 5.50798 29.0734 5.50798 29.0734 5.49981C24.9411 4.14326 21.8562 3.66111 16.4064 3.48133C10.9567 3.66111 7.87181 4.14326 3.7395 5.49981C3.7395 5.49981 3.7395 5.49981 3.7395 5.50798L2.78212 4.88691C7.3972 3.30972 10.6785 2.78671 16.4064 2.59875Z" fill="#E89511"/>
<path fill-rule="evenodd" clip-rule="evenodd" d="M16.4065 36.112C28.3616 29.6153 31.6101 16.3767 32.813 3.12987C26.7414 0.874403 23.0346 0.212472 16.4065 0C9.77847 0.2043 6.06349 0.874403 5.34058e-05 3.12987C1.19474 16.3767 4.4433 29.6153 16.4065 36.112ZM16.4065 2.59869C22.1345 2.78665 25.4158 3.30966 30.0308 4.88685C28.8853 15.7147 26.1113 27.0738 16.4065 33.1129C6.69356 27.0738 3.92778 15.7066 2.7822 4.88685C7.39728 3.30966 10.6786 2.78665 16.4065 2.59869Z" fill="#F39C12"/>
<path fill-rule="evenodd" clip-rule="evenodd" d="M3.64954 10.8361L16.4065 12.6421V9.70835L3.64954 7.90234V10.8361Z" fill="#F39C12"/>
<path fill-rule="evenodd" clip-rule="evenodd" d="M4.02595 13.0181C4.24689 14.0396 4.49237 15.0529 4.77058 16.0499L16.4065 17.7006V14.775L4.02595 13.0181Z" fill="#F39C12"/>
<path fill-rule="evenodd" clip-rule="evenodd" d="M5.44976 18.2808C5.80162 19.3431 6.19439 20.381 6.63626 21.3861L16.4065 22.7672V19.8416L5.44976 18.2808Z" fill="#F39C12"/>
<path fill-rule="evenodd" clip-rule="evenodd" d="M29.1636 10.8361L16.4148 12.6421V9.70835L29.1636 7.90234V10.8361Z" fill="#F39C12"/>
<path fill-rule="evenodd" clip-rule="evenodd" d="M28.7952 13.0181C28.5742 14.0396 28.3287 15.0529 28.0505 16.0499L16.4146 17.7006V14.775L28.7952 13.0181Z" fill="#F39C12"/>
<path fill-rule="evenodd" clip-rule="evenodd" d="M27.3713 18.2808C27.0195 19.3431 26.6267 20.381 26.1848 21.3861L16.4146 22.7672V19.8416L27.3713 18.2808Z" fill="#F39C12"/>
<path fill-rule="evenodd" clip-rule="evenodd" d="M2.78217 4.88684L3.73955 5.50791C4.79513 14.8567 7.26633 26.0605 16.4065 32.0587V33.1129C6.69354 27.0738 3.92776 15.7147 2.78217 4.88684Z" fill="#E09011"/>
<path fill-rule="evenodd" clip-rule="evenodd" d="M29.0652 5.50791L30.0226 4.88684C30.0226 4.88684 30.0226 4.88684 30.0308 4.88684C28.8852 15.7147 26.1112 27.0738 16.4064 33.1129V32.0587C25.5384 26.0605 28.0178 14.8567 29.0652 5.50791Z" fill="#FFCF82"/>
<g opacity="0.1">
<path opacity="0.1" d="M32.813 3.12976C31.6101 16.3765 28.3616 29.6152 16.4065 36.1119V0.00805664C23.0346 0.212356 26.7414 0.882459 32.813 3.12976Z" fill="black"/>
</g>
</svg>
