<svg width="1173" height="492" viewBox="0 0 1173 492" fill="none" xmlns="http://www.w3.org/2000/svg">
<path d="M1055.35 0L998.98 114.161L1015.81 114.804L968.042 205.509H993.139L954 286.107H1172.75L1124.58 205.509L1147.67 204.505L1101.5 113.84L1118.56 112.836L1055.35 0Z" fill="#EDF0F3"/>
<path d="M1064.88 132.423C1065.2 132.423 1064.76 201.346 1063.9 286.348C1063.03 371.376 1061.63 449.871 1061.63 449.55C1061.52 431.369 1061.86 371.363 1062.72 286.334C1063.59 201.346 1064.55 132.423 1064.88 132.423Z" fill="#E0E0E0"/>
<path d="M1091.69 161.77C1091.94 161.971 1086.33 169.709 1079.14 179.068C1071.95 188.426 1065.92 195.856 1065.66 195.656C1065.4 195.455 1071.02 187.716 1078.2 178.358C1085.39 169 1091.43 161.583 1091.69 161.77Z" fill="#E0E0E0"/>
<path d="M1064.35 193.232C1064.15 193.487 1058.6 189.47 1051.95 184.276C1045.29 179.068 1040.07 174.649 1040.27 174.395C1040.47 174.141 1046.01 178.157 1052.67 183.352C1059.31 188.56 1064.55 192.978 1064.35 193.232Z" fill="#E0E0E0"/>
<path d="M1062.86 249.235C1062.74 249.356 1061.19 248.084 1058.71 245.982C1056.23 243.88 1052.81 240.988 1048.99 237.855C1045.16 234.722 1041.64 231.951 1039.09 229.929C1036.55 227.908 1034.98 226.636 1035.08 226.502C1035.17 226.368 1036.91 227.412 1039.59 229.26C1042.27 231.108 1045.88 233.799 1049.73 236.945C1053.57 240.091 1056.93 243.103 1059.27 245.366C1061.6 247.629 1062.96 249.115 1062.86 249.235Z" fill="#E0E0E0"/>
<path d="M1091.73 214.627C1091.98 214.828 1085.82 222.941 1077.98 232.741C1070.12 242.541 1063.56 250.333 1063.31 250.132C1063.06 249.932 1069.22 241.818 1077.06 232.018C1084.9 222.204 1091.47 214.412 1091.73 214.627Z" fill="#E0E0E0"/>
<path d="M159.543 0L108.189 104.013L123.525 104.589L80.0116 187.248H102.868L67.2097 260.669H266.505L222.632 187.248L243.649 186.324L201.602 103.719L217.138 102.795L159.543 0Z" fill="#EDF0F3"/>
<path d="M168.224 120.655C168.518 120.655 168.118 183.459 167.318 260.896C166.531 338.361 165.651 426.161 165.344 426.161C165.051 426.161 165.451 338.361 166.251 260.896C167.051 183.446 167.931 120.655 168.224 120.655Z" fill="#E0E0E0"/>
<path d="M192.654 147.391C192.881 147.565 187.774 154.634 181.226 163.149C174.678 171.677 169.184 178.438 168.944 178.264C168.718 178.09 173.825 171.021 180.386 162.493C186.92 153.978 192.428 147.217 192.654 147.391Z" fill="#E0E0E0"/>
<path d="M167.744 176.055C167.557 176.283 162.503 172.628 156.449 167.888C150.382 163.149 145.621 159.119 145.808 158.878C145.994 158.651 151.048 162.306 157.103 167.045C163.157 171.798 167.931 175.828 167.744 176.055Z" fill="#E0E0E0"/>
<path d="M166.384 227.078C166.278 227.185 164.864 226.02 162.597 224.119C160.343 222.204 157.223 219.567 153.729 216.715C150.235 213.864 147.035 211.333 144.714 209.499C142.394 207.665 140.967 206.5 141.061 206.38C141.141 206.259 142.714 207.21 145.168 208.897C147.608 210.584 150.902 213.034 154.409 215.899C157.916 218.764 160.97 221.508 163.104 223.57C165.237 225.605 166.478 226.971 166.384 227.078Z" fill="#E0E0E0"/>
<path d="M192.681 195.535C192.908 195.723 187.294 203.113 180.146 212.043C172.998 220.973 167.011 228.068 166.784 227.881C166.557 227.694 172.158 220.303 179.319 211.373C186.48 202.443 192.454 195.361 192.681 195.535Z" fill="#E0E0E0"/>
<path d="M71.117 139.171L31.5646 219.286L43.3796 219.741L9.85476 283.389H27.4573L0 339.954H144.688L119.711 283.389L135.9 282.692L103.508 219.058L115.483 218.349L71.117 139.171Z" fill="#EDF0F3"/>
<path d="M77.8113 232.098C78.038 232.098 77.7313 280.47 77.1179 340.115C76.5045 399.786 75.8244 448.131 75.5977 448.131C75.371 448.131 75.6777 399.773 76.2911 340.101C76.9045 280.47 77.5846 232.098 77.8113 232.098Z" fill="#E0E0E0"/>
<path d="M96.6273 252.703C96.8006 252.837 92.8667 258.272 87.826 264.846C82.7853 271.42 78.5447 276.628 78.3713 276.48C78.1979 276.346 82.1318 270.911 87.1726 264.337C92.2133 257.777 96.4406 252.556 96.6273 252.703Z" fill="#E0E0E0"/>
<path d="M77.4379 274.78C77.3046 274.954 73.3973 272.143 68.73 268.488C64.0626 264.833 60.3954 261.727 60.5288 261.552C60.6621 261.378 64.5694 264.19 69.2367 267.845C73.9041 271.487 77.5713 274.593 77.4379 274.78Z" fill="#E0E0E0"/>
<path d="M76.3844 314.075C76.3044 314.155 75.2109 313.258 73.4773 311.785C71.7437 310.312 69.3433 308.277 66.6496 306.082C63.9559 303.886 61.4889 301.931 59.7019 300.526C57.915 299.107 56.8215 298.223 56.8882 298.116C56.9549 298.022 58.1684 298.745 60.0487 300.057C61.9289 301.356 64.4626 303.243 67.1697 305.453C69.8634 307.662 72.2238 309.777 73.864 311.37C75.5042 312.95 76.4644 313.994 76.3844 314.075Z" fill="#E0E0E0"/>
<path d="M96.6408 289.788C96.8141 289.935 92.4935 295.625 86.986 302.507C81.4786 309.389 76.8779 314.851 76.6912 314.704C76.5179 314.556 80.8385 308.866 86.346 301.985C91.8667 295.103 96.4674 289.641 96.6408 289.788Z" fill="#E0E0E0"/>
<path d="M885.524 449.938C833.41 489.139 763.493 494.709 698.603 489.233C633.714 483.757 569.225 468.749 504.229 472.631C467.41 474.827 431.071 483.061 394.199 483.717C357.327 484.373 318.202 476.246 291.544 450.661L885.524 449.938Z" fill="#EDF0F3"/>
<path d="M358 115.706H534.079C534.079 115.706 518.503 87.256 473.177 91.393C429.89 95.3425 427.69 77.4023 405.674 75.1932C383.684 72.9841 365.348 89.9202 358 115.706Z" fill="#EDF0F3"/>
<path d="M571 145.196H667.014C667.014 145.196 658.519 129.679 633.809 131.942C610.206 134.097 609.006 124.31 597.004 123.105C585.002 121.9 575.001 131.138 571 145.196Z" fill="#EDF0F3"/>
<path d="M1017.72 320.171C1031.95 335.714 1032.93 359.557 1019.45 375.761C1013.67 382.71 1006.31 388.41 997.766 392.288L925.861 424.814L875.071 432.703L210.368 428.472L168.709 420.274C148.633 416.337 134.234 398.517 134.527 377.979L134.951 348.921C135.01 344.455 137.936 340.547 142.194 339.24L145.15 338.329C145.15 338.329 147.608 309.844 164.728 303.394C227.107 276.408 268.415 267.74 372.834 263.362L461.04 210.431C461.04 210.431 496.641 187.587 529.828 184.59C563.015 181.593 638.08 181.549 672.496 183.547C712.897 185.883 764.17 204.335 792.747 218.57C815.135 229.72 869.028 257.265 869.028 257.265L899.507 262.393C904.087 262.613 988.284 267.769 997.956 269.253C1003.65 270.135 1010.86 274.424 1013.28 282.46C1015.69 290.481 1017.72 319.936 1017.72 319.936" fill="#B0C4DD"/>
<path d="M760.35 220.113C745.981 212.899 707.439 202.954 685.885 198.899C664.331 194.844 620.521 194.286 603.02 194.727C585.505 195.182 536.895 196.02 511.244 203.321C498.06 207.082 476.872 218.1 464.376 227.326C460.044 230.528 441.198 245.351 436.983 248.715L404.353 279.287L805.273 266.579C805.273 266.579 807.585 252.55 800.371 244.47C793.172 236.39 760.35 220.113 760.35 220.113Z" fill="#263238"/>
<path d="M165.65 336.61L145.369 336.317C146.159 330.822 148.837 316.22 157.5 308.051L184.35 308.433C189.252 308.507 192.208 313.898 189.633 318.1L184.746 326.077C180.692 332.717 173.435 336.713 165.65 336.61Z" fill="#FAFAFA"/>
<path d="M168.108 335.391C170.216 326.415 172.879 314.633 180.415 308.375L184.365 308.433C189.267 308.507 192.223 313.898 189.648 318.1L184.76 326.077C181.073 332.1 174.766 335.92 167.83 336.508C167.933 336.126 168.021 335.758 168.108 335.391Z" fill="#E0E0E0"/>
<g opacity="0.7">
<g opacity="0.7">
<g opacity="0.7">
<g opacity="0.7">
<path opacity="0.7" d="M364.903 429.691C366.996 419.481 367.552 408.742 366.279 397.842C361.04 352.638 331.541 320.113 287.014 319.466C248.252 318.908 216.235 343.221 209.695 388.248C207.734 401.72 208.29 415.529 211.041 428.648L364.903 429.691Z" fill="black"/>
</g>
</g>
</g>
</g>
<g opacity="0.7">
<g opacity="0.7">
<g opacity="0.7">
<g opacity="0.7">
<path opacity="0.7" d="M925.832 424.99C925.773 423.33 925.627 421.626 925.612 419.863C924.822 362.819 886.704 323.301 841.372 322.639C799.947 322.037 765.765 355.385 765.165 396.975C764.989 409.668 764.375 421.626 765.867 432.144L875.042 432.879L925.832 424.99Z" fill="black"/>
</g>
</g>
</g>
</g>
<path d="M774.82 397.122C774.293 433.408 803.178 463.259 839.335 463.788C875.478 464.317 905.211 435.318 905.738 399.017C906.265 362.731 877.38 332.879 841.223 332.35C805.066 331.821 775.332 360.821 774.82 397.122Z" fill="#263238"/>
<path d="M774.822 396.945C774.822 397.004 774.808 397.063 774.808 397.122C774.281 433.408 803.166 463.259 839.323 463.788C875.465 464.317 905.199 435.318 905.726 399.017C905.726 398.958 905.726 398.899 905.726 398.84L774.822 396.945Z" fill="#263238"/>
<path d="M794.313 397.401C793.947 422.875 814.228 443.838 839.601 444.206C864.974 444.573 885.855 424.211 886.22 398.738C886.586 373.264 866.305 352.3 840.932 351.933C815.559 351.566 794.679 371.912 794.313 397.401Z" fill="#FAFAFA"/>
<path d="M840.932 351.933C815.559 351.566 794.679 371.927 794.313 397.401L886.221 398.738C886.586 373.249 866.32 352.3 840.932 351.933Z" fill="#E0E0E0"/>
<path d="M812.282 397.651C812.063 413.179 824.413 425.93 839.865 426.165C855.331 426.386 868.033 413.987 868.267 398.473C868.486 382.945 856.136 370.193 840.684 369.958C825.217 369.738 812.502 382.137 812.282 397.651Z" fill="#263238"/>
<path d="M291.265 465.434C327.385 463.804 355.35 433.086 353.727 396.822C352.104 360.559 321.507 332.483 285.387 334.113C249.267 335.743 221.302 366.461 222.925 402.725C224.548 438.988 255.145 467.064 291.265 465.434Z" fill="#263238"/>
<path d="M222.894 398.635C222.894 398.694 222.879 398.752 222.879 398.811C222.352 435.097 251.237 464.949 287.394 465.478C323.537 466.007 353.27 437.007 353.797 400.706C353.797 400.647 353.797 400.589 353.797 400.53L222.894 398.635Z" fill="#263238"/>
<path d="M242.384 399.09C242.018 424.564 262.299 445.528 287.672 445.895C313.045 446.262 333.926 425.901 334.292 400.427C334.658 374.953 314.377 353.99 289.004 353.622C263.616 353.255 242.75 373.616 242.384 399.09Z" fill="#FAFAFA"/>
<path d="M289.004 353.622C263.631 353.255 242.75 373.616 242.384 399.09L334.292 400.427C334.658 374.939 314.377 353.99 289.004 353.622Z" fill="#E0E0E0"/>
<path d="M260.338 399.355C260.119 414.883 272.469 427.634 287.921 427.87C303.388 428.09 316.089 415.691 316.323 400.177C316.542 384.649 304.193 371.898 288.74 371.663C273.274 371.428 260.558 383.827 260.338 399.355Z" fill="#263238"/>
<g opacity="0.4">
<g opacity="0.4">
<g opacity="0.4">
<g opacity="0.4">
<path opacity="0.4" d="M161.7 384.693C161.597 392.053 157.881 397.974 153.418 397.915C148.94 397.856 145.414 391.833 145.516 384.473C145.618 377.113 149.335 371.192 153.798 371.251C158.276 371.31 161.817 377.333 161.7 384.693Z" fill="black"/>
</g>
</g>
</g>
</g>
<path d="M1017.72 320.171C1017.72 320.201 1017.29 320.245 1016.47 320.274C1015.54 320.304 1014.34 320.348 1012.85 320.406C1009.71 320.495 1005.15 320.583 999.536 320.818C993.917 321.009 987.23 321.361 979.826 321.964C972.436 322.639 964.3 323.506 955.989 325.489C951.848 326.532 947.868 327.796 944.268 329.559C940.654 331.292 937.508 333.584 934.611 335.92C928.758 340.489 924.339 345.557 920.329 349.538C916.364 353.563 912.764 356.458 910.072 358.103C908.725 358.926 907.643 359.513 906.882 359.836C906.121 360.189 905.726 360.351 905.711 360.321C905.667 360.233 907.277 359.528 909.881 357.794C912.501 356.061 915.983 353.123 919.876 349.068C923.812 345.072 928.202 339.901 934.098 335.244C936.981 332.879 940.2 330.514 943.888 328.736C947.561 326.929 951.614 325.636 955.799 324.579C964.198 322.566 972.378 321.729 979.796 321.097C987.23 320.539 993.931 320.259 999.55 320.157C1005.18 320.01 1009.73 320.01 1012.88 320.054C1014.37 320.068 1015.59 320.083 1016.51 320.098C1017.29 320.113 1017.72 320.142 1017.72 320.171Z" fill="#263238"/>
<g opacity="0.5">
<g opacity="0.5">
<g opacity="0.5">
<g opacity="0.5">
<g opacity="0.5">
<path opacity="0.5" d="M923.724 426.165C923.724 426.165 923.988 425.974 924.514 425.651C925.041 425.313 925.802 424.784 926.724 424.02C928.538 422.448 931.011 419.716 932.782 415.456C934.611 411.225 935.445 405.51 934.904 398.987C934.348 392.465 932.855 385.09 930.572 377.171C928.231 369.268 924.88 360.806 920.037 352.418C915.179 344.058 908.77 335.758 900.575 328.604C892.41 321.464 882.46 315.411 871.149 312.003C859.853 308.566 847.444 307.581 834.992 308.903C822.525 310.211 810.57 313.472 799.712 318.115C788.87 322.786 779.139 329.177 771.808 337.213C764.375 345.16 759.356 354.43 755.858 363.436C752.361 372.485 750.356 381.358 749.039 389.497C748.396 393.581 747.913 397.489 747.591 401.191C747.225 404.893 747.006 408.404 747.152 411.665C747.357 418.188 749.478 423.771 752.815 426.958C756.034 430.264 759.677 431.38 762.033 431.542C764.448 431.645 765.677 431.116 765.691 431.204C765.691 431.204 765.384 431.307 764.784 431.469C764.184 431.615 763.248 431.748 762.019 431.733C759.619 431.63 755.873 430.558 752.551 427.223C749.113 424.006 746.888 418.291 746.625 411.695C746.45 408.389 746.654 404.849 746.991 401.147C747.298 397.43 747.766 393.508 748.381 389.409C749.669 381.226 751.644 372.294 755.141 363.171C756.897 358.617 759.019 354.019 761.653 349.523C764.287 345.028 767.462 340.68 771.193 336.64C778.612 328.501 788.445 322.008 799.376 317.292C810.321 312.591 822.349 309.315 834.919 307.993C847.473 306.656 860.028 307.655 871.442 311.151C882.884 314.618 892.937 320.759 901.175 327.987C909.428 335.229 915.881 343.603 920.739 352.05C925.597 360.527 928.933 369.047 931.231 377.01C933.499 384.987 934.933 392.376 935.46 398.973C935.972 405.554 935.065 411.357 933.162 415.617C931.319 419.922 928.773 422.639 926.9 424.182C924.924 425.68 923.724 426.165 923.724 426.165Z" fill="white"/>
</g>
</g>
</g>
</g>
</g>
<path d="M211.07 388.234C210.996 388.278 210.309 387.338 208.948 385.722C207.602 384.106 205.494 381.887 202.597 379.507C196.847 374.704 187.452 369.738 176.244 367.417C165.006 365.096 154.529 365.287 147.022 365.536C143.262 365.683 140.218 365.86 138.111 365.977C136.004 366.095 134.833 366.124 134.833 366.065C134.833 366.036 135.111 365.977 135.667 365.904C136.326 365.83 137.131 365.727 138.082 365.61C140.174 365.39 143.218 365.11 146.993 364.875C154.5 364.449 165.064 364.141 176.434 366.491C187.804 368.842 197.315 373.984 203.022 378.993C205.904 381.476 207.967 383.782 209.226 385.487C209.899 386.309 210.309 387.029 210.631 387.485C210.938 387.969 211.084 388.219 211.07 388.234Z" fill="#263238"/>
<path d="M210.675 339.313C210.675 339.578 195.047 339.563 175.776 339.284C156.505 339.005 140.877 338.564 140.892 338.314C140.892 338.05 156.519 338.065 175.79 338.344C195.047 338.623 210.675 339.064 210.675 339.313Z" fill="#263238"/>
<g opacity="0.5">
<g opacity="0.5">
<g opacity="0.5">
<g opacity="0.5">
<g opacity="0.5">
<path opacity="0.5" d="M387.788 422.919C387.788 422.919 387.759 422.61 387.73 422.023C387.715 421.391 387.701 420.509 387.671 419.378C387.671 418.218 387.598 416.793 387.496 415.088C387.437 413.399 387.291 411.445 387.071 409.256C386.311 400.501 384.277 387.837 379.111 372.97C376.536 365.551 373.112 357.618 368.722 349.509C364.332 341.4 359.05 332.982 352.129 325.284C345.251 317.556 336.325 310.99 325.936 306.685C315.591 302.293 303.987 299.986 292.076 299.692C286.121 299.604 280.238 300.104 274.488 300.971C268.766 301.97 263.206 303.35 257.88 305.157C252.597 307.082 247.461 309.153 242.75 311.812L240.964 312.753L239.238 313.796C238.096 314.486 236.955 315.191 235.828 315.882C234.745 316.631 233.663 317.395 232.594 318.144L230.985 319.261L229.463 320.465C221.298 326.826 214.567 334.157 209.431 341.811C204.251 349.435 200.49 357.236 197.857 364.626C195.208 372.015 193.672 378.993 192.779 385.163C192.442 388.263 192.062 391.143 192.003 393.831C191.799 396.505 191.872 398.943 191.886 401.147C191.842 403.351 192.121 405.29 192.194 406.979C192.267 408.669 192.486 410.094 192.633 411.24C192.779 412.356 192.881 413.223 192.955 413.854C193.028 414.442 193.028 414.751 193.028 414.751C193.028 414.751 192.955 414.457 192.852 413.869C192.75 413.237 192.618 412.371 192.428 411.269C192.252 410.123 192.003 408.698 191.886 407.009C191.784 405.319 191.477 403.365 191.491 401.162C191.447 398.958 191.345 396.505 191.521 393.816C191.564 391.128 191.916 388.234 192.223 385.105C193.072 378.89 194.564 371.868 197.198 364.42C199.817 356.972 203.563 349.098 208.758 341.4C213.894 333.672 220.669 326.239 228.892 319.819L230.429 318.599L232.053 317.468C233.136 316.719 234.219 315.955 235.316 315.191C236.457 314.501 237.599 313.796 238.755 313.09L240.496 312.033L242.296 311.078C247.052 308.375 252.231 306.274 257.558 304.335C262.928 302.498 268.547 301.103 274.312 300.104C280.107 299.237 286.048 298.738 292.062 298.811C304.075 299.105 315.796 301.441 326.258 305.892C336.764 310.24 345.822 316.939 352.743 324.755C359.708 332.556 364.991 341.032 369.381 349.2C373.77 357.368 377.18 365.346 379.711 372.823C384.818 387.778 386.764 400.515 387.408 409.3C388.096 418.027 387.788 422.919 387.788 422.919Z" fill="white"/>
</g>
</g>
</g>
</g>
</g>
<path d="M899.624 263.303C899.653 263.303 899.639 263.641 899.566 264.258C899.463 264.993 899.346 265.889 899.214 266.991C898.907 269.356 898.41 272.779 898.102 277.025C897.81 281.255 897.707 286.368 898.775 291.877C899.844 297.357 902.507 303.115 907.014 307.728C911.491 312.371 916.92 315.514 922.056 317.645C927.236 319.775 932.182 320.935 936.323 321.802C940.493 322.639 943.888 323.154 946.244 323.536C947.326 323.712 948.219 323.873 948.951 323.991C949.565 324.108 949.887 324.182 949.887 324.211C949.887 324.241 949.551 324.226 948.921 324.182C948.19 324.108 947.297 324.02 946.185 323.903C943.815 323.624 940.391 323.212 936.191 322.448C932.006 321.67 927.002 320.568 921.719 318.453C916.466 316.337 910.921 313.149 906.326 308.389C901.687 303.659 898.966 297.665 897.927 292.053C896.873 286.427 897.049 281.241 897.429 276.98C897.824 272.705 898.424 269.297 898.849 266.932C899.068 265.757 899.244 264.846 899.375 264.229C899.507 263.612 899.595 263.289 899.624 263.303Z" fill="#263238"/>
<path d="M567.068 299.266C567.068 299.237 567.346 299.208 567.873 299.193C568.399 299.178 569.19 299.164 570.199 299.31C571.194 299.443 572.526 299.957 573.374 301.25C574.238 302.454 574.618 304.408 573.755 306.156C572.935 307.89 571.15 309.256 569.029 309.844C566.907 310.446 564.566 310.314 562.21 310.182C557.469 309.917 552.274 309.609 546.816 309.3C545.455 309.212 544.021 309.08 542.704 308.521C541.402 307.963 540.202 306.964 539.734 305.539C539.251 304.114 539.719 302.601 540.495 301.529C541.27 300.427 542.426 299.648 543.597 299.252C545.982 298.429 548.309 298.605 550.401 298.561C552.523 298.561 554.484 298.635 556.269 298.708C559.737 298.855 562.59 298.987 564.741 299.075C566.746 299.149 567.843 299.178 567.858 299.237C567.858 299.266 567.58 299.31 567.053 299.34C566.526 299.384 565.751 299.413 564.741 299.428C562.737 299.472 559.825 299.428 556.254 299.355C554.469 299.325 552.508 299.296 550.401 299.325C548.309 299.399 546.011 299.281 543.89 300.045C542.821 300.412 541.885 301.088 541.227 302.028C540.553 302.954 540.231 304.158 540.597 305.216C540.948 306.289 541.929 307.155 543.056 307.625C544.197 308.11 545.514 308.242 546.86 308.331C552.303 308.668 557.498 308.992 562.239 309.285C564.595 309.447 566.834 309.579 568.809 309.065C570.755 308.566 572.394 307.346 573.14 305.848C573.931 304.335 573.652 302.645 572.906 301.514C572.175 300.339 571.048 299.839 570.097 299.648C568.194 299.31 567.053 299.369 567.068 299.266Z" fill="#263238"/>
<path d="M774.076 297.547C774.076 297.518 774.354 297.489 774.88 297.474C775.407 297.459 776.197 297.445 777.207 297.592C778.202 297.724 779.534 298.238 780.382 299.531C781.246 300.735 781.626 302.689 780.763 304.437C779.929 306.171 778.158 307.537 776.036 308.125C773.915 308.727 771.573 308.595 769.218 308.463C764.477 308.198 759.282 307.89 753.824 307.581C752.463 307.493 751.029 307.361 749.712 306.803C748.41 306.244 747.21 305.245 746.742 303.82C746.259 302.395 746.727 300.882 747.503 299.81C748.278 298.708 749.434 297.929 750.605 297.533C752.99 296.71 755.317 296.886 757.409 296.842C759.531 296.842 761.492 296.916 763.277 296.989C766.73 297.136 769.598 297.268 771.749 297.356C773.754 297.43 774.851 297.459 774.866 297.518C774.866 297.547 774.588 297.592 774.061 297.621C773.534 297.665 772.759 297.694 771.749 297.709C769.744 297.753 766.832 297.709 763.262 297.636C761.477 297.606 759.516 297.577 757.409 297.606C755.317 297.68 753.019 297.562 750.898 298.326C749.829 298.693 748.893 299.369 748.234 300.309C747.561 301.235 747.239 302.439 747.605 303.497C747.956 304.57 748.937 305.436 750.064 305.907C751.205 306.391 752.522 306.524 753.868 306.612C759.311 306.95 764.506 307.273 769.247 307.567C771.603 307.728 773.842 307.86 775.817 307.346C777.763 306.847 779.402 305.627 780.148 304.129C780.938 302.616 780.66 300.926 779.914 299.795C779.182 298.62 778.056 298.12 777.105 297.929C775.202 297.592 774.061 297.65 774.076 297.547Z" fill="#263238"/>
<path d="M805.288 266.594C805.288 266.594 805.229 266.873 805.083 267.432C804.936 267.99 804.717 268.812 804.424 269.87C803.824 272.03 802.946 275.218 801.805 279.375C799.478 287.705 796.084 299.883 791.752 315.353L791.723 315.441L791.635 315.485C784.963 318.614 778.012 323.021 771.501 328.971C768.194 331.88 765.121 335.318 762.121 338.99C759.165 342.707 756.444 346.806 753.912 351.198C748.923 360.013 744.957 370.12 742.162 381.079C739.426 392.039 737.641 403.894 737.626 416.22V416.572H737.29C693.962 416.587 643.758 416.602 590.495 416.616C519.234 416.587 453.445 416.558 401.148 416.543H400.885L400.856 416.278C396.1 377.304 393.1 345.219 391.286 322.875C390.379 311.71 389.749 302.983 389.354 297.048C389.164 294.095 389.018 291.833 388.915 290.29C388.827 288.763 388.798 287.969 388.798 287.969C388.798 287.969 388.886 288.748 389.003 290.276C389.12 291.818 389.296 294.081 389.53 297.033C390.013 302.983 390.73 311.695 391.637 322.845C393.554 345.16 396.641 377.245 401.455 416.19L401.148 415.926C453.46 415.911 519.234 415.882 590.495 415.852C643.758 415.867 693.962 415.882 737.29 415.896L736.953 416.249C736.968 403.806 738.782 391.951 741.562 380.932C744.386 369.929 748.381 359.778 753.429 350.919C755.99 346.512 758.726 342.384 761.711 338.667C764.74 334.98 767.828 331.542 771.164 328.619C777.734 322.654 784.729 318.247 791.445 315.132L791.328 315.265C795.732 299.81 799.2 287.646 801.556 279.331C802.741 275.188 803.663 272.015 804.278 269.856C804.585 268.798 804.819 267.99 804.995 267.432C805.185 266.873 805.288 266.594 805.288 266.594Z" fill="#263238"/>
<path d="M594.255 274.042C594.27 274.042 594.27 274.175 594.24 274.41C594.211 274.703 594.167 275.056 594.123 275.482C594.006 276.481 593.831 277.862 593.611 279.595C593.377 281.388 593.084 283.562 592.836 286.118C592.572 288.66 592.206 291.554 591.943 294.771C591.65 297.974 591.329 301.485 591.109 305.275C590.816 309.05 590.67 313.09 590.48 317.351C590.202 325.857 590.129 335.229 590.436 345.043C590.787 354.871 591.489 364.2 592.338 372.676C592.821 376.907 593.231 380.932 593.787 384.679C594.255 388.439 594.811 391.921 595.323 395.094C595.791 398.282 596.348 401.147 596.786 403.659C597.211 406.186 597.65 408.345 598.001 410.108C598.338 411.827 598.601 413.193 598.791 414.178C598.864 414.604 598.923 414.956 598.981 415.235C599.025 415.47 599.025 415.603 599.025 415.603C599.011 415.603 598.967 415.485 598.908 415.25C598.835 414.971 598.747 414.633 598.645 414.207C598.425 413.223 598.103 411.871 597.723 410.167C597.313 408.404 596.845 406.259 596.377 403.732C595.894 401.22 595.294 398.356 594.796 395.168C594.255 391.995 593.67 388.498 593.172 384.752C592.602 381.006 592.163 376.966 591.65 372.735C590.758 364.258 590.026 354.9 589.675 345.058C589.368 335.215 589.456 325.842 589.777 317.307C589.997 313.046 590.158 308.992 590.48 305.216C590.729 301.426 591.08 297.915 591.402 294.712C591.694 291.495 592.089 288.616 592.397 286.059C592.689 283.518 593.026 281.329 593.304 279.551C593.582 277.818 593.801 276.452 593.962 275.453C594.036 275.027 594.094 274.674 594.153 274.395C594.211 274.16 594.24 274.042 594.255 274.042Z" fill="#263238"/>
<path d="M390.539 269.855C385.842 273.381 378.863 274.263 373.127 273.087C367.376 271.912 362.869 269.224 359.928 264.141L372.805 263.568L390.539 269.855Z" fill="#263238"/>
<path d="M372.79 263.553C372.79 263.553 385.769 271.501 389.559 270.414C393.334 269.327 453.899 221.258 490.451 202.704C490.451 202.704 485.637 200.75 479.345 200.177C479.345 200.177 462.342 208.815 441.124 221.64C424.985 231.395 408.567 241.62 400.885 246.321C384.116 256.604 372.79 263.553 372.79 263.553Z" fill="#455A64"/>
<path d="M414.347 273.749C414.347 273.763 414.215 273.851 413.922 274.013C413.615 274.189 413.191 274.439 412.649 274.762C411.493 275.423 409.825 276.378 407.674 277.598C403.284 280.066 396.919 283.65 388.915 288.16L388.857 288.19H388.783C377.019 287.764 361.918 287.455 344.622 288.16C335.974 288.527 326.785 289.159 317.2 290.129C307.631 291.128 297.666 292.479 287.467 294.11C269.6 296.916 252.758 300.442 237.335 303.277C221.898 306.054 207.836 307.611 195.998 308.257C184.16 308.948 174.547 308.771 167.933 308.566C164.626 308.463 162.05 308.331 160.309 308.228C159.46 308.169 158.802 308.14 158.334 308.096C157.895 308.066 157.661 308.022 157.661 308.022C157.661 308.022 157.895 308.007 158.334 308.007C158.817 308.022 159.475 308.037 160.324 308.052C162.065 308.11 164.64 308.198 167.947 308.257C174.561 308.36 184.16 308.448 195.969 307.699C207.777 306.994 221.81 305.378 237.218 302.572C252.612 299.692 269.483 296.137 287.364 293.346C297.578 291.715 307.543 290.364 317.142 289.38C326.741 288.41 335.945 287.808 344.607 287.455C361.932 286.794 377.048 287.176 388.813 287.69L388.681 287.719C396.744 283.283 403.138 279.772 407.557 277.348C409.723 276.173 411.42 275.262 412.591 274.615C413.147 274.321 413.571 274.101 413.893 273.925C414.186 273.807 414.332 273.734 414.347 273.749Z" fill="#263238"/>
<path d="M428.145 275.262C520.156 271.134 705.756 267.711 797.766 263.582C797.766 263.582 800.81 253.431 792.147 247.099C788.987 244.793 769.891 230.279 747.576 221.728C712.56 208.316 676.857 202.968 662.575 201.793C646.187 200.442 616.204 199.237 616.204 199.237C616.204 199.237 561.317 201.44 545.997 202.821C523.433 204.863 504.484 211.034 490.451 217.997C471.268 227.531 437.891 255.591 437.891 255.591L414.42 275.247H428.145V275.262Z" fill="#455A64"/>
<path d="M597.475 196.504L579.711 272.735L611.917 271.706L618.326 196.504H597.475Z" fill="#263238"/>
<path d="M736.69 214.956L733.558 266.594H738.036L741.065 216.572L736.69 214.956Z" fill="#263238"/>
<path d="M431.628 257.78C433.047 259.69 441.212 278.141 441.212 278.141L410.133 276.099L431.628 257.78Z" fill="#263238"/>
<path d="M460.791 276.29L437.1 276.951C433.969 276.907 431.525 271.339 431.613 264.508C431.701 258.397 433.823 253.24 436.588 252.359L459.078 245.19L460.791 276.29Z" fill="#B0C4DD"/>
<path d="M607.556 195.638C607.761 195.667 605.258 213.046 601.951 234.436C598.645 255.84 595.806 273.161 595.601 273.132C595.396 273.102 597.898 255.723 601.205 234.319C604.498 212.929 607.351 195.608 607.556 195.638Z" fill="#455A64"/>
<path d="M432.55 256.648C432.725 256.722 431.423 260.395 428.921 264.493C426.433 268.607 423.785 271.457 423.638 271.324C423.463 271.178 425.833 268.151 428.277 264.097C430.735 260.071 432.345 256.56 432.55 256.648Z" fill="#455A64"/>
<path d="M563.878 210.372C563.892 210.387 563.775 210.607 563.541 211.004C563.234 211.474 562.883 212.032 562.444 212.723C561.405 214.295 560 216.41 558.303 218.981C554.791 224.255 549.948 231.542 544.665 239.651C539.383 247.76 534.686 255.135 531.276 260.483C529.623 263.083 528.247 265.213 527.238 266.8C526.784 267.475 526.418 268.034 526.111 268.504C525.847 268.886 525.701 269.091 525.672 269.077C525.643 269.062 525.76 268.842 525.979 268.43C526.257 267.946 526.579 267.358 526.989 266.653C527.867 265.11 529.184 262.907 530.823 260.204C534.115 254.783 538.754 247.349 544.021 239.24C549.304 231.131 554.22 223.888 557.849 218.687C559.664 216.087 561.156 214.001 562.195 212.561C562.678 211.915 563.088 211.371 563.41 210.931C563.688 210.534 563.848 210.358 563.878 210.372Z" fill="#EBEBEB"/>
<path d="M550.371 221.905C550.547 222.022 547.299 226.885 543.128 232.747C538.958 238.608 535.446 243.265 535.271 243.148C535.095 243.03 538.344 238.167 542.514 232.306C546.684 226.444 550.196 221.787 550.371 221.905Z" fill="#EBEBEB"/>
<path d="M1017.45 316.117C1017.45 316.117 1009.81 316.601 1004.06 314.119C994.912 310.167 990.522 299.281 994.883 290.29C994.912 290.232 994.941 290.173 994.971 290.129C997.692 284.62 1003.36 280.682 1009.47 280.727H1012.66C1012.66 280.727 1014.08 283.004 1014.74 288.366C1015.59 295.373 1016.89 305.995 1017.45 316.117Z" fill="#F5F5F5"/>
<path d="M679.447 212.841C679.622 212.958 672.598 224.373 663.76 238.329C654.922 252.3 647.606 263.524 647.43 263.421C647.255 263.303 654.278 251.889 663.116 237.918C671.955 223.961 679.271 212.738 679.447 212.841Z" fill="#EBEBEB"/>
<path d="M677.062 227.252C677.237 227.37 674.896 231.336 671.823 236.111C668.75 240.885 666.116 244.675 665.941 244.558C665.765 244.44 668.106 240.474 671.179 235.699C674.252 230.925 676.886 227.149 677.062 227.252Z" fill="#EBEBEB"/>
<path d="M455.348 249.612C455.421 249.803 451.499 251.536 446.422 253.02C441.344 254.518 437.115 255.165 437.071 254.974C437.028 254.753 441.169 253.769 446.202 252.285C451.251 250.816 455.275 249.406 455.348 249.612Z" fill="#EBEBEB"/>
<path d="M582.725 281.902C582.725 282.108 544.11 282.284 496.495 282.284C448.851 282.284 410.25 282.108 410.25 281.902C410.25 281.696 448.851 281.52 496.495 281.52C544.11 281.52 582.725 281.682 582.725 281.902Z" fill="#EBEBEB"/>
<path d="M570.053 297.283C570.053 297.489 564.448 297.665 557.527 297.665C550.606 297.665 545.001 297.489 545.001 297.283C545.001 297.077 550.606 296.901 557.527 296.901C564.448 296.901 570.053 297.077 570.053 297.283Z" fill="#EBEBEB"/>
<path d="M289.662 314.736C289.662 314.765 289.326 314.765 288.711 314.765C288.082 314.78 287.16 314.706 285.975 314.736C283.604 314.721 280.166 314.839 275.966 315.353C267.582 316.322 256.007 319.349 244.945 326.121C233.883 332.894 225.922 341.855 221.225 348.892C218.855 352.418 217.172 355.429 216.104 357.545C215.533 358.588 215.167 359.44 214.875 359.998C214.597 360.556 214.436 360.85 214.407 360.835C214.377 360.821 214.494 360.512 214.728 359.939C214.977 359.366 215.299 358.485 215.826 357.412C216.821 355.238 218.43 352.168 220.772 348.583C225.381 341.429 233.37 332.306 244.55 325.46C255.715 318.614 267.45 315.647 275.893 314.795C280.136 314.354 283.59 314.31 285.975 314.413C287.16 314.427 288.082 314.545 288.711 314.589C289.326 314.662 289.662 314.706 289.662 314.736Z" fill="#EBEBEB"/>
<path d="M730.719 277.818C730.719 278.024 705.156 278.2 673.623 278.2C642.075 278.2 616.526 278.024 616.526 277.818C616.526 277.612 642.089 277.436 673.623 277.436C705.156 277.436 730.719 277.612 730.719 277.818Z" fill="#EBEBEB"/>
<path d="M780.792 295.035C780.778 295.138 779.212 295.124 776.666 295.065C774.12 295.006 770.608 294.918 766.73 294.903C762.853 294.889 759.341 294.933 756.795 294.962C754.249 294.991 752.668 295.006 752.668 294.888C752.668 294.786 754.234 294.595 756.78 294.418C759.326 294.242 762.853 294.11 766.745 294.139C770.637 294.154 774.164 294.33 776.695 294.536C779.241 294.712 780.792 294.933 780.792 295.035Z" fill="#EBEBEB"/>
<path d="M1013.29 372.139C1016.8 373.746 1019.34 377.08 1020.57 380.748C1021.81 384.416 1021.85 388.393 1021.34 392.235C1020.37 399.665 1016.01 407.096 1011.37 412.96C1005.23 407.377 1003.97 397.804 1003.63 392.904C1003.11 385.179 1006.83 370.867 1013.29 372.139Z" fill="#B0C4DD"/>
<path d="M1018.4 425.384C1017.48 421.154 1019.3 416.575 1022.57 413.763C1025.84 410.952 1030.36 409.814 1034.65 410.229C1036.64 410.416 1038.77 411.045 1039.88 412.706C1040.92 414.259 1040.76 416.401 1039.87 418.047C1038.97 419.694 1037.45 420.899 1035.87 421.863C1030.38 425.157 1024.48 427.352 1018.4 425.384Z" fill="#B0C4DD"/>
<path d="M1009.97 448.064C1009.93 448.051 1010.02 447.515 1010.22 446.538C1010.43 445.467 1010.71 444.088 1011.05 442.414C1011.81 438.973 1012.78 434.046 1015.54 429.294C1018.28 424.554 1022.02 421.1 1025.17 419.4C1026.73 418.529 1028.09 418.021 1029.05 417.766C1029.53 417.619 1029.9 417.566 1030.17 417.499C1030.42 417.445 1030.56 417.432 1030.57 417.445C1030.61 417.566 1028.4 417.927 1025.37 419.721C1022.33 421.461 1018.7 424.889 1016.02 429.548C1013.32 434.207 1012.28 439.067 1011.43 442.481C1011.02 444.208 1010.69 445.6 1010.43 446.564C1010.17 447.542 1009.99 448.064 1009.97 448.064Z" fill="#263238"/>
<path d="M1011.41 383.292C1011.42 383.292 1011.45 383.519 1011.48 383.961C1011.49 384.456 1011.52 385.099 1011.56 385.876C1011.61 387.549 1011.66 389.959 1011.7 392.945C1011.78 398.916 1011.78 407.163 1011.57 416.267C1011.36 425.371 1010.98 433.618 1010.62 439.576C1010.45 442.561 1010.27 444.958 1010.14 446.631C1010.07 447.421 1010.02 448.051 1009.98 448.546C1009.94 448.988 1009.9 449.215 1009.89 449.215C1009.87 449.215 1009.86 448.988 1009.87 448.546C1009.89 448.051 1009.91 447.408 1009.94 446.631C1010.02 444.891 1010.11 442.508 1010.25 439.576C1010.5 433.618 1010.82 425.384 1011.03 416.28C1011.25 407.176 1011.3 398.942 1011.33 392.971C1011.34 390.039 1011.34 387.643 1011.35 385.902C1011.37 385.112 1011.37 384.483 1011.38 383.974C1011.38 383.519 1011.4 383.292 1011.41 383.292Z" fill="#263238"/>
<path d="M1007.51 429.722C1006.26 420.685 1000.37 412.438 992.246 408.341C990.179 407.297 987.472 406.587 985.725 408.113C983.978 409.64 984.311 412.451 985.111 414.633C988.445 423.724 997.713 430.258 1007.35 430.324" fill="#B0C4DD"/>
<path d="M993.126 415.41C993.139 415.37 993.606 415.597 994.446 416.012C994.859 416.227 995.379 416.481 995.926 416.843C996.486 417.204 997.153 417.566 997.806 418.074C998.473 418.57 999.233 419.092 999.953 419.761C1000.71 420.377 1001.46 421.127 1002.23 421.917C1003.74 423.537 1005.26 425.465 1006.54 427.687C1007.81 429.923 1008.7 432.199 1009.33 434.341C1009.61 435.412 1009.87 436.443 1010.01 437.42C1010.19 438.384 1010.26 439.308 1010.33 440.138C1010.42 440.968 1010.37 441.731 1010.39 442.401C1010.41 443.07 1010.35 443.632 1010.31 444.101C1010.23 445.038 1010.17 445.547 1010.13 445.534C1010.01 445.52 1010.26 443.458 1009.95 440.165C1009.86 439.348 1009.78 438.438 1009.57 437.487C1009.42 436.523 1009.14 435.519 1008.86 434.475C1008.22 432.386 1007.33 430.15 1006.09 427.955C1004.83 425.772 1003.35 423.871 1001.89 422.251C1001.14 421.462 1000.42 420.712 999.673 420.082C998.966 419.413 998.246 418.878 997.593 418.369C994.939 416.414 993.072 415.517 993.126 415.41Z" fill="#263238"/>
<path d="M873.446 161.878C867.827 161.878 863.262 157.295 863.291 151.639L863.335 139.871C863.335 139.871 854.907 138.564 854.804 130.102C854.702 121.655 856.165 102.234 856.165 102.234C865.911 98.032 877.163 99.4423 885.577 105.95L883.587 152.403C883.192 157.75 878.773 161.878 873.446 161.878Z" fill="#B78876"/>
<path d="M863.321 139.768C863.321 139.768 868.647 140.209 874.295 136.639C874.295 136.639 871.705 142.721 863.291 141.957L863.321 139.768Z" fill="#AA6550"/>
<path d="M884.626 115.69C884.772 115.632 890.406 113.972 890.23 119.745C890.04 125.518 884.304 124.152 884.304 123.976C884.304 123.814 884.626 115.69 884.626 115.69Z" fill="#B78876"/>
<path d="M886.133 121.846C886.162 121.831 886.235 121.919 886.396 122.007C886.557 122.095 886.835 122.154 887.142 122.051C887.757 121.846 888.298 120.891 888.357 119.848C888.386 119.319 888.298 118.819 888.123 118.393C887.962 117.967 887.698 117.659 887.391 117.6C887.084 117.527 886.864 117.703 886.791 117.864C886.703 118.026 886.747 118.144 886.718 118.144C886.703 118.158 886.601 118.041 886.645 117.806C886.674 117.688 886.747 117.556 886.879 117.453C887.025 117.35 887.23 117.292 887.435 117.321C887.874 117.365 888.269 117.791 888.459 118.246C888.679 118.717 888.796 119.275 888.752 119.862C888.679 121.023 888.05 122.095 887.216 122.316C886.806 122.404 886.469 122.272 886.308 122.14C886.133 121.993 886.103 121.86 886.133 121.846Z" fill="#AA6550"/>
<path d="M859.208 115.352C859.179 115.984 859.706 116.528 860.364 116.572C861.023 116.601 861.579 116.116 861.608 115.485C861.637 114.853 861.111 114.295 860.452 114.265C859.794 114.236 859.238 114.721 859.208 115.352Z" fill="#263238"/>
<path d="M857.76 114.148C857.907 114.309 858.814 113.634 860.116 113.634C861.404 113.619 862.355 114.28 862.501 114.133C862.574 114.06 862.413 113.78 862.004 113.472C861.594 113.178 860.906 112.884 860.101 112.884C859.297 112.884 858.624 113.193 858.229 113.487C857.819 113.795 857.672 114.074 857.76 114.148Z" fill="#263238"/>
<path d="M871.881 115.352C871.851 115.984 872.378 116.528 873.037 116.572C873.695 116.601 874.251 116.116 874.28 115.485C874.31 114.853 873.783 114.295 873.124 114.265C872.466 114.236 871.91 114.721 871.881 115.352Z" fill="#263238"/>
<path d="M870.476 114.383C870.622 114.544 871.544 113.869 872.832 113.869C874.119 113.854 875.071 114.515 875.217 114.368C875.29 114.295 875.129 114.016 874.719 113.707C874.31 113.399 873.622 113.119 872.817 113.119C872.012 113.119 871.339 113.428 870.944 113.722C870.534 114.03 870.403 114.324 870.476 114.383Z" fill="#263238"/>
<path d="M865.779 124.02C865.779 123.947 864.974 123.8 863.672 123.638C863.335 123.609 863.028 123.535 862.969 123.315C862.896 123.08 863.028 122.713 863.189 122.331C863.496 121.523 863.818 120.685 864.169 119.804C865.53 116.205 866.51 113.252 866.364 113.193C866.218 113.134 865.003 116.014 863.642 119.613C863.321 120.494 862.999 121.346 862.706 122.154C862.574 122.536 862.369 122.962 862.53 123.462C862.618 123.712 862.867 123.888 863.072 123.947C863.277 124.005 863.467 124.02 863.628 124.02C864.959 124.094 865.764 124.094 865.779 124.02Z" fill="#263238"/>
<path d="M869.583 124.916C869.378 124.901 869.364 126.312 868.164 127.311C866.964 128.31 865.472 128.163 865.457 128.354C865.443 128.442 865.794 128.633 866.423 128.648C867.037 128.662 867.945 128.471 868.676 127.854C869.408 127.237 869.73 126.415 869.774 125.842C869.832 125.269 869.686 124.916 869.583 124.916Z" fill="#263238"/>
<path d="M870.139 109.3C870.271 109.652 871.559 109.491 873.081 109.667C874.602 109.814 875.831 110.269 876.022 109.946C876.109 109.799 875.905 109.461 875.407 109.123C874.91 108.786 874.134 108.462 873.227 108.359C872.32 108.257 871.486 108.404 870.93 108.624C870.359 108.859 870.081 109.123 870.139 109.3Z" fill="#263238"/>
<path d="M858.228 110.387C858.462 110.681 859.34 110.372 860.423 110.357C861.491 110.299 862.399 110.563 862.618 110.24C862.706 110.093 862.56 109.799 862.164 109.52C861.769 109.241 861.126 109.021 860.379 109.035C859.648 109.065 859.004 109.329 858.638 109.623C858.258 109.931 858.126 110.24 858.228 110.387Z" fill="#263238"/>
<path d="M852.054 96.9155C851.966 95.8725 852.347 94.7413 853.195 94.1243C854.044 93.5073 855.361 93.5513 856.049 94.3446C855.654 92.9343 856.81 91.3037 858.258 91.2155C859.634 91.1274 860.804 92.1704 862.136 92.5377C863.438 92.8903 864.828 92.5817 866.072 92.0823C867.316 91.5828 868.486 90.8776 869.745 90.4222C872.379 89.4526 875.378 89.5848 877.925 90.7454C880.471 91.9207 882.519 94.1243 883.514 96.7686C885.358 96.1957 887.45 97.1359 888.577 98.6931C889.718 100.265 890.011 102.322 889.777 104.246C889.631 105.539 889.25 106.802 888.811 108.036C888.811 108.139 888.826 108.257 888.826 108.36C888.738 113.002 888.211 118.467 886.236 118.496C882.797 118.555 883.617 112.032 883.617 112.032C879.388 110.387 880.968 104.041 879.915 103.071C878.861 102.101 876.651 99.8684 867.799 104.408C864.36 106.171 859.795 106.112 857.307 105.554C857.234 105.539 857.161 105.524 857.088 105.51C857.073 105.51 857.058 105.51 857.044 105.495C857.014 105.495 857 105.48 856.97 105.466C856.18 105.26 855.405 104.951 854.702 104.496C853.898 103.982 853.166 103.291 852.829 102.41C852.493 101.514 852.625 100.412 853.312 99.7655C852.654 98.9429 852.142 97.9586 852.054 96.9155Z" fill="#263238"/>
<path d="M956.136 154.077C955.916 154.43 953.531 158.955 953.531 158.955C953.531 158.955 955.433 151.536 955.507 151.271C956.121 148.847 954.629 149.097 954.19 149.964C953.736 150.86 951.044 158.147 951.044 158.147C953.575 148.612 952.785 147.775 952.068 147.628C951.351 147.481 949.112 156.193 949.112 156.193C949.112 156.193 948.307 154.709 946.815 153.681C944.518 152.094 940.698 153.681 940.523 154.768C940.333 155.855 941.708 156.149 941.708 156.149C944.576 154.298 947.532 156.545 947.225 159.292C946.917 162.04 943.449 161.658 943.025 159.704C942.074 155.399 940.596 156.81 940.596 156.81L942.074 166.285L940.508 171.06L931.963 194.315L915.633 177.245C915.633 177.245 906.897 196.622 906.692 197.268C906.561 197.709 914.872 206.391 920.344 212.047C923.3 215.103 927.397 216.807 931.641 216.733C938.738 216.631 944.839 211.695 946.464 204.76L952.917 171.368L955.946 160.424C955.946 160.424 957.043 155.972 957.292 154.944C957.672 153.563 956.707 153.137 956.136 154.077Z" fill="#B78876"/>
<path d="M811.068 219.304C815.941 220.171 821.53 216.645 824.53 212.694L836.69 196.607L822.394 183.811L809.59 199.868L761.507 197.312L750.152 190.922C749.377 190.481 748.469 190.319 747.592 190.452L731.964 194.874L746.626 199.398L772.218 209.065L811.068 219.304Z" fill="#B78876"/>
<path d="M920.051 455.899L922.071 464.391C922.071 464.391 935.913 482.445 940.186 481.564C942.981 480.991 939.542 476.275 934.274 462.569L933.162 456.913L920.051 455.899Z" fill="#B0C4DD"/>
<path d="M940.742 478.905C940.742 478.905 940.727 479.008 940.639 479.155C940.552 479.302 940.361 479.537 940.054 479.698C939.747 479.875 939.322 479.992 938.825 479.963C938.327 479.934 937.771 479.728 937.259 479.39C935.298 477.891 932.87 475.556 930.28 472.867C927.704 470.164 925.568 467.534 924.09 465.595C923.358 464.626 922.773 463.818 922.393 463.259C922.232 463.024 922.085 462.819 921.954 462.613C921.851 462.466 921.807 462.378 921.822 462.378C921.837 462.378 921.895 462.437 922.012 462.584C922.158 462.775 922.319 462.98 922.495 463.201C923.007 463.862 923.607 464.626 924.266 465.492C925.787 467.402 927.938 470.003 930.499 472.706C933.06 475.379 935.503 477.759 937.376 479.258C938.357 479.978 939.439 479.963 940.025 479.625C940.61 479.302 940.713 478.876 940.742 478.905Z" fill="#263238"/>
<path d="M938.782 473.102C938.767 473.146 938.343 473.058 937.67 473.161C936.996 473.249 936.075 473.558 935.182 474.116C934.275 474.659 933.631 475.379 933.309 475.982C932.987 476.584 932.885 477.025 932.841 477.01C932.811 477.01 932.841 476.555 933.133 475.893C933.426 475.232 934.099 474.439 935.036 473.881C935.957 473.308 936.938 473.014 937.655 472.97C938.372 472.911 938.796 473.073 938.782 473.102Z" fill="#263238"/>
<path d="M925.685 468.871C925.641 468.857 925.831 468.269 925.934 467.27C926.051 466.286 925.934 464.89 925.246 463.553C924.573 462.202 923.476 461.305 922.598 460.865C921.72 460.424 921.09 460.365 921.09 460.321C921.09 460.307 921.251 460.306 921.529 460.351C921.807 460.395 922.217 460.497 922.671 460.703C923.593 461.1 924.763 462.025 925.48 463.436C926.197 464.831 926.3 466.315 926.124 467.314C926.051 467.813 925.934 468.21 925.846 468.475C925.758 468.724 925.7 468.871 925.685 468.871Z" fill="#263238"/>
<path d="M920.944 457.354C921.018 457.324 921.457 458.5 921.705 460.013C921.954 461.526 922.232 462.716 922.174 462.73C922.086 462.76 921.691 461.57 921.442 460.057C921.178 458.558 920.871 457.368 920.944 457.354Z" fill="#263238"/>
<path d="M934.523 463.774C934.523 463.862 933.733 463.832 932.811 464.053C931.89 464.258 931.187 464.626 931.143 464.552C931.099 464.494 931.773 464.009 932.738 463.774C933.719 463.553 934.538 463.7 934.523 463.774Z" fill="#263238"/>
<path d="M934.801 465.228C934.786 465.301 934.128 465.243 933.367 465.434C932.591 465.61 932.035 465.962 931.991 465.904C931.948 465.86 932.46 465.36 933.294 465.169C934.142 464.963 934.83 465.154 934.801 465.228Z" fill="#263238"/>
<path d="M935.913 467.05C935.884 467.123 935.225 466.917 934.42 467.108C933.616 467.285 933.104 467.77 933.045 467.711C932.986 467.681 933.455 467.05 934.347 466.844C935.254 466.638 935.957 466.991 935.913 467.05Z" fill="#263238"/>
<path d="M933.572 463.157C933.572 463.171 933.397 463.156 933.104 463.098C932.811 463.039 932.387 462.936 931.875 462.76C931.363 462.584 930.777 462.334 930.148 461.996C929.841 461.82 929.519 461.629 929.197 461.408C928.89 461.173 928.509 460.865 928.509 460.336C928.539 459.778 929.168 459.557 929.563 459.675C929.987 459.778 930.28 460.086 930.529 460.321C931.041 460.821 931.465 461.291 931.802 461.717C932.138 462.128 932.402 462.481 932.563 462.73C932.724 462.98 932.811 463.127 932.797 463.142C932.768 463.171 932.372 462.642 931.655 461.849C931.304 461.452 930.865 460.997 930.353 460.512C930.104 460.277 929.826 460.027 929.504 459.939C929.197 459.866 928.787 460.027 928.787 460.351C928.773 460.674 929.08 460.982 929.358 461.188C929.665 461.408 929.973 461.599 930.28 461.776C930.88 462.128 931.451 462.393 931.948 462.584C932.929 462.98 933.587 463.112 933.572 463.157Z" fill="#263238"/>
<path d="M932.84 462.98C932.825 462.98 932.811 462.833 932.825 462.554C932.84 462.275 932.855 461.893 932.913 461.394C932.972 460.909 933.089 460.321 933.352 459.719C933.484 459.41 933.645 459.117 933.894 458.823C934.113 458.573 934.538 458.235 935.006 458.47C935.43 458.735 935.43 459.234 935.386 459.572C935.328 459.939 935.225 460.262 935.079 460.571C934.801 461.173 934.435 461.643 934.084 461.996C933.733 462.349 933.425 462.598 933.206 462.745C932.986 462.936 932.855 462.995 932.84 462.98C932.811 462.936 933.308 462.598 933.952 461.878C934.26 461.511 934.611 461.056 934.86 460.483C934.977 460.204 935.079 459.881 935.123 459.557C935.167 459.249 935.123 458.852 934.874 458.72C934.626 458.573 934.304 458.779 934.099 459.014C933.879 459.249 933.718 459.557 933.586 459.836C933.323 460.409 933.206 460.968 933.118 461.438C932.943 462.393 932.884 462.995 932.84 462.98Z" fill="#263238"/>
<g opacity="0.4">
<g opacity="0.4">
<g opacity="0.4">
<path opacity="0.4" d="M922.071 464.405L921.09 460.321C921.09 460.321 924.485 460.953 925.363 463.494C926.241 466.036 926.022 467.858 926.022 467.858L933.396 475.835C933.396 475.835 935.24 472.206 938.591 473.073C938.591 473.073 941.225 478.89 941.152 480.345C941.064 481.946 939.381 481.623 938.781 481.358C938.503 481.241 935.328 479.405 932.182 476.129C928.275 472.059 923.958 466.903 922.071 464.405Z" fill="black"/>
</g>
</g>
</g>
<path d="M851.248 460.204L851.189 448.877L872.333 448.613L872.597 465.184L871.28 465.287C865.456 465.683 841.605 466.888 837.698 465.742C833.337 464.479 851.248 460.204 851.248 460.204Z" fill="#B0C4DD"/>
<g opacity="0.4">
<g opacity="0.4">
<g opacity="0.4">
<g opacity="0.4">
<path opacity="0.4" d="M864.93 465.11C865.208 463.333 866.174 461.673 867.578 460.556C868.983 459.44 870.71 458.837 872.495 458.955L872.568 464.89L864.93 465.11Z" fill="black"/>
</g>
</g>
</g>
</g>
<g opacity="0.4">
<g opacity="0.4">
<path opacity="0.4" d="M842.498 462.598C842.498 462.598 836.221 464.494 837.026 465.537C837.83 466.565 861.96 466.256 872.598 465.184L872.554 464.714L844.4 465.316C844.4 465.316 843.727 462.642 842.498 462.598Z" fill="black"/>
</g>
</g>
<path d="M872.89 464.699C872.89 464.714 872.758 464.729 872.524 464.743C872.217 464.773 871.866 464.787 871.485 464.817C870.447 464.875 869.159 464.949 867.652 465.037C864.403 465.199 859.926 465.36 854.965 465.419C850.005 465.492 845.527 465.448 842.279 465.375C840.757 465.331 839.484 465.287 838.43 465.257C838.05 465.243 837.699 465.228 837.391 465.213C837.157 465.199 837.026 465.184 837.026 465.184C837.026 465.169 837.157 465.169 837.391 465.169C837.699 465.169 838.05 465.169 838.43 465.169C839.469 465.184 840.757 465.184 842.279 465.199C845.527 465.228 850.005 465.228 854.965 465.169C859.911 465.096 864.403 464.964 867.652 464.861C869.174 464.802 870.447 464.758 871.5 464.729C871.895 464.714 872.232 464.714 872.539 464.699C872.758 464.684 872.89 464.684 872.89 464.699Z" fill="#263238"/>
<path d="M844.415 465.639C844.342 465.654 844.269 464.729 843.669 463.803C843.098 462.863 842.294 462.407 842.337 462.349C842.352 462.29 843.259 462.672 843.889 463.671C844.518 464.67 844.474 465.654 844.415 465.639Z" fill="#263238"/>
<path d="M850.605 462.393C850.546 462.437 850.239 462.07 849.931 461.585C849.624 461.1 849.405 460.674 849.463 460.645C849.522 460.6 849.829 460.968 850.136 461.453C850.458 461.923 850.663 462.349 850.605 462.393Z" fill="#263238"/>
<path d="M852.302 461.453C852.258 461.511 851.922 461.291 851.556 460.968C851.19 460.645 850.927 460.336 850.97 460.277C851.014 460.219 851.351 460.439 851.717 460.762C852.097 461.1 852.361 461.409 852.302 461.453Z" fill="#263238"/>
<path d="M853.37 459.44C853.37 459.513 852.873 459.587 852.273 459.602C851.658 459.616 851.161 459.572 851.161 459.499C851.161 459.425 851.658 459.352 852.258 459.337C852.873 459.322 853.37 459.366 853.37 459.44Z" fill="#263238"/>
<path d="M853.721 458.03C853.751 458.088 853.209 458.338 852.492 458.412C851.775 458.47 851.205 458.323 851.219 458.265C851.234 458.191 851.79 458.221 852.463 458.162C853.151 458.088 853.692 457.956 853.721 458.03Z" fill="#263238"/>
<path d="M849.874 460.542C849.874 460.571 849.361 460.644 848.513 460.556C848.088 460.512 847.591 460.424 847.064 460.248C846.801 460.16 846.523 460.086 846.23 459.91C846.098 459.822 845.937 459.704 845.893 459.484C845.835 459.278 845.937 459.043 846.098 458.94C847.386 458.25 848.703 458.97 849.186 459.631C849.449 459.969 849.581 460.307 849.639 460.542C849.698 460.777 849.698 460.909 849.683 460.909C849.639 460.924 849.581 460.38 849.054 459.748C848.791 459.44 848.396 459.146 847.883 458.999C847.401 458.867 846.713 458.837 846.259 459.131C846.04 459.293 846.127 459.543 846.376 459.689C846.596 459.836 846.888 459.91 847.137 460.013C847.649 460.189 848.132 460.292 848.542 460.365C849.347 460.512 849.874 460.498 849.874 460.542Z" fill="#263238"/>
<path d="M849.522 460.615C849.507 460.63 849.302 460.277 849.346 459.675C849.375 459.366 849.478 459.014 849.697 458.676C849.931 458.367 850.239 457.956 850.824 457.971C851.146 458 851.292 458.367 851.248 458.603C851.234 458.838 851.117 459.043 851.029 459.22C850.824 459.557 850.604 459.837 850.4 460.057C849.975 460.483 849.639 460.645 849.624 460.615C849.595 460.586 849.888 460.365 850.268 459.925C850.458 459.704 850.648 459.425 850.824 459.102C851.014 458.808 851.131 458.294 850.78 458.235C850.444 458.206 850.092 458.544 849.888 458.823C849.683 459.117 849.566 459.44 849.522 459.719C849.434 460.248 849.566 460.6 849.522 460.615Z" fill="#263238"/>
<path d="M872.378 458.896C872.378 458.94 871.778 458.852 870.812 458.97C869.861 459.087 868.559 459.499 867.417 460.424C866.291 461.35 865.632 462.569 865.325 463.48C865.018 464.391 864.988 465.008 864.945 465.008C864.93 465.008 864.915 464.861 864.945 464.582C864.959 464.303 865.018 463.906 865.164 463.436C865.427 462.496 866.086 461.218 867.271 460.248C868.456 459.278 869.832 458.882 870.798 458.808C871.295 458.764 871.69 458.794 871.954 458.823C872.232 458.838 872.378 458.882 872.378 458.896Z" fill="#263238"/>
<path d="M870.081 450.097C870.154 450.097 870.256 452.05 870.315 454.46C870.373 456.869 870.374 458.823 870.3 458.823C870.227 458.823 870.125 456.869 870.066 454.46C869.993 452.05 870.008 450.097 870.081 450.097Z" fill="#263238"/>
<path d="M862.238 463.083C862.252 463.157 860.877 463.392 859.15 463.436C857.438 463.48 856.048 463.289 856.048 463.23C856.048 463.157 857.438 463.215 859.136 463.186C860.848 463.127 862.238 463.01 862.238 463.083Z" fill="#263238"/>
<path d="M866.379 463.025C866.437 463.069 866.276 463.318 866.13 463.642C865.984 463.965 865.925 464.244 865.852 464.244C865.779 464.244 865.735 463.906 865.896 463.539C866.057 463.157 866.335 462.966 866.379 463.025Z" fill="#263238"/>
<path d="M867.915 461.056C867.959 461.1 867.827 461.335 867.623 461.555C867.403 461.776 867.184 461.923 867.14 461.879C867.096 461.835 867.228 461.614 867.432 461.379C867.652 461.144 867.871 460.997 867.915 461.056Z" fill="#263238"/>
<path d="M870.139 460.13C870.124 460.204 869.846 460.204 869.539 460.321C869.232 460.424 869.012 460.601 868.954 460.556C868.895 460.512 869.071 460.219 869.451 460.072C869.832 459.939 870.168 460.057 870.139 460.13Z" fill="#263238"/>
<path d="M871.734 459.69C871.764 459.748 871.646 459.866 871.471 459.939C871.295 460.013 871.134 460.013 871.105 459.954C871.076 459.895 871.193 459.778 871.368 459.704C871.544 459.631 871.705 459.616 871.734 459.69Z" fill="#263238"/>
<path d="M942.513 457.413L900.707 235.141L842.601 244.029L846.727 455.312L879.651 456.017L874.178 271.692L911.213 457.413H942.513Z" fill="#455A64"/>
<path d="M907.131 256.399L840.699 253.916L842.586 193.052L833.88 203.012L816.131 187.572L835.665 160.85C840.728 153.975 848.366 149.45 856.809 148.289C859.282 147.951 861.17 147.79 862.399 147.628C869.628 149.861 876.841 149.861 884.07 147.613C887.421 147.76 890.318 148.348 893.04 149.347C898.659 151.389 903.356 154.474 907.365 158.646L929.153 188.219L910.526 204.393L899.917 195.021L907.131 256.399Z" fill="#263238"/>
<path d="M843.596 170.076C843.801 170.09 843.596 180.212 843.143 192.685C842.674 205.172 842.133 215.279 841.913 215.264C841.708 215.25 841.913 205.128 842.367 192.655C842.835 180.183 843.377 170.076 843.596 170.076Z" fill="#455A64"/>
<path d="M897.561 174.072C897.766 174.057 898.512 179.904 899.2 187.146C899.903 194.389 900.298 200.28 900.078 200.295C899.873 200.309 899.127 194.462 898.439 187.22C897.752 179.977 897.357 174.101 897.561 174.072Z" fill="#455A64"/>
<path d="M865.047 148.319C865.179 148.48 864.681 149.097 863.921 149.685C863.174 150.272 862.457 150.61 862.326 150.449C862.194 150.287 862.691 149.67 863.452 149.083C864.199 148.495 864.916 148.142 865.047 148.319Z" fill="#455A64"/>
<path d="M868.062 148.965C868.252 149.068 868.105 149.67 867.915 150.375C867.71 151.081 867.52 151.668 867.301 151.654C867.096 151.654 866.95 150.963 867.184 150.155C867.403 149.376 867.886 148.862 868.062 148.965Z" fill="#455A64"/>
<path d="M871.515 149.406C871.72 149.391 871.925 149.964 871.954 150.684C871.983 151.404 871.851 151.991 871.632 152.006C871.427 152.021 871.222 151.448 871.193 150.728C871.149 150.008 871.295 149.406 871.515 149.406Z" fill="#455A64"/>
<path d="M875.92 149.083C876.139 149.083 876.315 149.7 876.52 150.434C876.71 151.169 876.871 151.786 876.681 151.903C876.505 152.006 876.008 151.477 875.788 150.64C875.554 149.788 875.715 149.083 875.92 149.083Z" fill="#455A64"/>
<path d="M880.851 148.539C881.056 148.466 881.392 148.906 881.787 149.421C882.183 149.949 882.504 150.39 882.387 150.566C882.27 150.743 881.656 150.508 881.188 149.876C880.719 149.274 880.661 148.613 880.851 148.539Z" fill="#455A64"/>
<path d="M883.455 147.79C883.572 147.613 884.07 147.731 884.582 148.069C885.08 148.392 885.402 148.803 885.284 148.98C885.167 149.156 884.67 149.038 884.158 148.701C883.646 148.377 883.338 147.966 883.455 147.79Z" fill="#455A64"/>
<path d="M898.951 188.527C898.951 188.733 886.499 188.924 871.135 188.924C855.77 188.939 843.318 188.777 843.318 188.557C843.318 188.351 855.77 188.16 871.135 188.16C886.499 188.16 898.951 188.322 898.951 188.527Z" fill="#FAFAFA"/>
<path d="M899.435 192.67C899.435 192.876 886.982 193.067 871.618 193.067C856.253 193.082 843.801 192.92 843.801 192.7C843.801 192.494 856.253 192.303 871.618 192.303C886.982 192.288 899.435 192.45 899.435 192.67Z" fill="#FAFAFA"/>
<path d="M899.917 196.798C899.917 197.004 887.128 197.298 871.339 197.43C855.551 197.577 842.747 197.518 842.747 197.298C842.747 197.092 855.536 196.798 871.325 196.666C887.113 196.519 899.917 196.578 899.917 196.798Z" fill="#FAFAFA"/>
<path d="M917.974 172.632C918.047 172.705 917.14 173.719 915.589 175.261C914.038 176.804 911.828 178.861 909.282 181.02C906.736 183.18 904.351 185.031 902.581 186.309C900.81 187.587 899.669 188.307 899.595 188.233C899.537 188.145 900.561 187.279 902.244 185.883C904.132 184.311 906.341 182.475 908.785 180.433C911.185 178.361 913.365 176.481 915.223 174.865C916.862 173.425 917.886 172.544 917.974 172.632Z" fill="#FAFAFA"/>
<path d="M921.34 176.319C921.413 176.393 920.344 177.48 918.515 179.11C916.701 180.741 914.111 182.93 911.155 185.207C908.199 187.484 905.434 189.438 903.4 190.775C901.366 192.127 900.049 192.876 899.991 192.788C899.932 192.699 901.132 191.789 903.093 190.32C905.053 188.865 907.746 186.853 910.702 184.59C913.643 182.313 916.277 180.212 918.179 178.684C920.066 177.171 921.266 176.246 921.34 176.319Z" fill="#FAFAFA"/>
<path d="M923.051 179.816C923.182 179.977 918.734 184.017 913.101 188.851C907.467 193.684 902.799 197.459 902.653 197.312C902.521 197.151 906.97 193.111 912.603 188.278C918.237 183.43 922.904 179.654 923.051 179.816Z" fill="#FAFAFA"/>
<path d="M842.805 189.82C842.762 189.908 841.62 189.335 839.981 188.087C838.342 186.853 836.265 184.913 834.128 182.651C831.992 180.389 830.104 178.303 828.758 176.775C827.412 175.247 826.622 174.263 826.695 174.189C826.768 174.116 827.705 174.968 829.153 176.407C830.602 177.847 832.548 179.874 834.684 182.122C836.806 184.385 838.781 186.353 840.318 187.675C841.84 188.997 842.864 189.717 842.805 189.82Z" fill="#FAFAFA"/>
<path d="M840.933 194.859C840.859 194.933 839.762 194.125 838.065 192.714C836.367 191.304 834.099 189.262 831.699 186.897C829.3 184.531 827.236 182.284 825.802 180.609C824.368 178.934 823.534 177.847 823.622 177.774C823.71 177.7 824.661 178.67 826.198 180.242C827.734 181.814 829.856 183.988 832.241 186.338C834.626 188.689 836.835 190.775 838.43 192.288C840.025 193.831 841.006 194.771 840.933 194.859Z" fill="#FAFAFA"/>
<path d="M838.884 198.458C838.796 198.532 837.816 197.562 836.236 195.99C834.655 194.418 832.46 192.244 829.973 189.923C827.485 187.602 825.173 185.56 823.49 184.091C821.808 182.622 820.769 181.696 820.842 181.608C820.9 181.535 822.056 182.298 823.827 183.665C825.598 185.031 827.983 187.014 830.485 189.35C832.987 191.686 835.138 193.919 836.616 195.594C838.109 197.283 838.957 198.385 838.884 198.458Z" fill="#FAFAFA"/>
<path d="M906.999 253.593C906.999 253.798 892.235 253.608 874.032 253.152C855.829 252.697 841.079 252.153 841.079 251.947C841.079 251.742 855.843 251.933 874.046 252.388C892.249 252.829 906.999 253.372 906.999 253.593Z" fill="#455A64"/>
</svg>
